<svg width="8" height="10" viewBox="0 0 8 10" fill="none" xmlns="http://www.w3.org/2000/svg">
<mask id="path-1-inside-1_1_972" fill="white">
<path fill-rule="evenodd" clip-rule="evenodd" d="M3.1514 5.76372H4.10085H4.10095C4.48474 5.76372 4.86852 5.76372 5.2725 5.72525C6.76738 5.64832 7.95923 4.43655 7.99963 2.9555C8.01983 1.43598 6.84818 0.108807 5.35331 0.0318693C4.40387 -0.00659947 3.47462 -0.00660064 2.48477 0.0126338C2.04035 0.0318682 1.59593 0.0318693 1.13131 0.0318693H0.929297V3.91719V4.45576H0V5.74447H0.929297V6.26387H0.0199219V7.55257H0.929297V9.34128H2.38377V7.55257H4.62575V6.26387H2.38377V5.76372H3.1514ZM2.38377 4.45576H2.72713V4.47502H3.01001H3.35341H3.43422C4.28266 4.49425 4.86849 4.47502 5.2119 4.45578C6.01994 4.37884 6.66638 3.6864 6.64618 2.87856C6.64618 2.03224 5.95934 1.33981 5.0907 1.30134C4.6077 1.2726 4.12469 1.27607 3.62484 1.27966C3.45571 1.28088 3.28465 1.28211 3.11101 1.28211H2.38377V3.91719V4.45576Z"/>
</mask>
<path fill-rule="evenodd" clip-rule="evenodd" d="M3.1514 5.76372H4.10085H4.10095C4.48474 5.76372 4.86852 5.76372 5.2725 5.72525C6.76738 5.64832 7.95923 4.43655 7.99963 2.9555C8.01983 1.43598 6.84818 0.108807 5.35331 0.0318693C4.40387 -0.00659947 3.47462 -0.00660064 2.48477 0.0126338C2.04035 0.0318682 1.59593 0.0318693 1.13131 0.0318693H0.929297V3.91719V4.45576H0V5.74447H0.929297V6.26387H0.0199219V7.55257H0.929297V9.34128H2.38377V7.55257H4.62575V6.26387H2.38377V5.76372H3.1514ZM2.38377 4.45576H2.72713V4.47502H3.01001H3.35341H3.43422C4.28266 4.49425 4.86849 4.47502 5.2119 4.45578C6.01994 4.37884 6.66638 3.6864 6.64618 2.87856C6.64618 2.03224 5.95934 1.33981 5.0907 1.30134C4.6077 1.2726 4.12469 1.27607 3.62484 1.27966C3.45571 1.28088 3.28465 1.28211 3.11101 1.28211H2.38377V3.91719V4.45576Z" fill="#C4C4C4"/>
<path d="M5.2725 5.72525L5.25964 5.47535L5.24881 5.47638L5.2725 5.72525ZM7.99963 2.9555L8.24957 2.96232L8.24961 2.95882L7.99963 2.9555ZM5.35331 0.0318693L5.36616 -0.217815L5.36343 -0.217926L5.35331 0.0318693ZM2.48477 0.0126338L2.47991 -0.23739L2.47396 -0.237132L2.48477 0.0126338ZM0.929297 0.0318693V-0.218131H0.679297V0.0318693H0.929297ZM0.929297 4.45576V4.70576H1.1793V4.45576H0.929297ZM0 4.45576V4.20576H-0.25V4.45576H0ZM0 5.74447H-0.25V5.99447H0V5.74447ZM0.929297 5.74447H1.1793V5.49447H0.929297V5.74447ZM0.929297 6.26387V6.51387H1.1793V6.26387H0.929297ZM0.0199219 6.26387V6.01387H-0.230078V6.26387H0.0199219ZM0.0199219 7.55257H-0.230078V7.80257H0.0199219V7.55257ZM0.929297 7.55257H1.1793V7.30257H0.929297V7.55257ZM0.929297 9.34128H0.679297V9.59128H0.929297V9.34128ZM2.38377 9.34128V9.59128H2.63377V9.34128H2.38377ZM2.38377 7.55257V7.30257H2.13377V7.55257H2.38377ZM4.62575 7.55257V7.80257H4.87575V7.55257H4.62575ZM4.62575 6.26387H4.87575V6.01387H4.62575V6.26387ZM2.38377 6.26387H2.13377V6.51387H2.38377V6.26387ZM2.38377 5.76372V5.51372H2.13377V5.76372H2.38377ZM2.72713 4.45576H2.97713V4.20576H2.72713V4.45576ZM2.38377 4.45576H2.13377V4.70576H2.38377V4.45576ZM2.72713 4.47502H2.47713V4.72502H2.72713V4.47502ZM3.43422 4.47502L3.43989 4.22502H3.43422V4.47502ZM5.2119 4.45578L5.22589 4.70558L5.2356 4.70466L5.2119 4.45578ZM6.64618 2.87856H6.3961L6.39626 2.88481L6.64618 2.87856ZM5.0907 1.30134L5.07585 1.55093L5.07964 1.5511L5.0907 1.30134ZM3.62484 1.27966L3.62304 1.02967H3.62304L3.62484 1.27966ZM2.38377 1.28211V1.03211H2.13377V1.28211H2.38377ZM4.10085 5.51372H3.1514V6.01372H4.10085V5.51372ZM4.10095 5.51372H4.10085V6.01372H4.10095V5.51372ZM5.24881 5.47638C4.85845 5.51355 4.48623 5.51372 4.10095 5.51372V6.01372C4.48324 6.01372 4.87859 6.01389 5.2962 5.97413L5.24881 5.47638ZM7.74973 2.94868C7.71293 4.29745 6.62614 5.40525 5.25965 5.47558L5.28535 5.97492C6.90861 5.89138 8.20553 4.57565 8.24954 2.96232L7.74973 2.94868ZM5.34046 0.281539C6.69145 0.351071 7.7682 1.55708 7.74966 2.95218L8.24961 2.95882C8.27147 1.31489 7.00492 -0.133457 5.36616 -0.2178L5.34046 0.281539ZM2.48963 0.262587C3.47647 0.243411 4.40039 0.243465 5.34319 0.281664L5.36343 -0.217926C4.40734 -0.256664 3.47277 -0.256612 2.47992 -0.237319L2.48963 0.262587ZM1.13131 0.281869C1.59497 0.281869 2.04484 0.281908 2.49558 0.2624L2.47396 -0.237132C2.03586 -0.218172 1.59689 -0.218131 1.13131 -0.218131V0.281869ZM0.929297 0.281869H1.13131V-0.218131H0.929297V0.281869ZM1.1793 3.91719V0.0318693H0.679297V3.91719H1.1793ZM1.1793 4.45576V3.91719H0.679297V4.45576H1.1793ZM0 4.70576H0.929297V4.20576H0V4.70576ZM0.25 5.74447V4.45576H-0.25V5.74447H0.25ZM0.929297 5.49447H0V5.99447H0.929297V5.49447ZM1.1793 6.26387V5.74447H0.679297V6.26387H1.1793ZM0.0199219 6.51387H0.929297V6.01387H0.0199219V6.51387ZM0.269922 7.55257V6.26387H-0.230078V7.55257H0.269922ZM0.929297 7.30257H0.0199219V7.80257H0.929297V7.30257ZM1.1793 9.34128V7.55257H0.679297V9.34128H1.1793ZM2.38377 9.09128H0.929297V9.59128H2.38377V9.09128ZM2.13377 7.55257V9.34128H2.63377V7.55257H2.13377ZM4.62575 7.30257H2.38377V7.80257H4.62575V7.30257ZM4.37575 6.26387V7.55257H4.87575V6.26387H4.37575ZM2.38377 6.51387H4.62575V6.01387H2.38377V6.51387ZM2.13377 5.76372V6.26387H2.63377V5.76372H2.13377ZM3.1514 5.51372H2.38377V6.01372H3.1514V5.51372ZM2.72713 4.20576H2.38377V4.70576H2.72713V4.20576ZM2.97713 4.47502V4.45576H2.47713V4.47502H2.97713ZM3.01001 4.22502H2.72713V4.72502H3.01001V4.22502ZM3.35341 4.22502H3.01001V4.72502H3.35341V4.22502ZM3.43422 4.22502H3.35341V4.72502H3.43422V4.22502ZM5.19792 4.20617C4.86117 4.22503 4.2819 4.24417 3.43989 4.22508L3.42856 4.72495C4.28342 4.74433 4.8758 4.725 5.22588 4.70539L5.19792 4.20617ZM6.39626 2.88481C6.41299 3.55392 5.87312 4.14169 5.18821 4.20691L5.2356 4.70466C6.16676 4.61599 6.91977 3.81888 6.8961 2.87231L6.39626 2.88481ZM5.07964 1.5511C5.82211 1.58398 6.39618 2.17336 6.39618 2.87856H6.89618C6.89618 1.89112 6.09658 1.09564 5.10176 1.05159L5.07964 1.5511ZM3.62663 1.52965C4.12794 1.52605 4.60257 1.52273 5.07585 1.5509L5.10555 1.05178C4.61283 1.02246 4.12144 1.02609 3.62304 1.02967L3.62663 1.52965ZM3.11101 1.53211C3.28569 1.53211 3.45764 1.53087 3.62663 1.52965L3.62304 1.02967C3.45377 1.03088 3.28361 1.03211 3.11101 1.03211V1.53211ZM2.38377 1.53211H3.11101V1.03211H2.38377V1.53211ZM2.63377 3.91719V1.28211H2.13377V3.91719H2.63377ZM2.13377 3.91719V4.45576H2.63377V3.91719H2.13377Z" fill="white" mask="url(#path-1-inside-1_1_972)"/>
</svg>
